# xmcd
#
# Track frame offsets: 
#        150
#        18914
#        33222
#        45513
#        55320
#        66307
#        94493
#        108277
#        117115
#        126523
#        136090
#        145339
#        156756
#        174060
#        183798
#        197514
#        210285
#        222281
#        237648
#        248602
#        264744
#
# Disc length: 3697 seconds
#
# Revision: 0
# Processed by: cddbd v1.5.2PL0 Copyright (c) Steve Scherf et al.
# Submitted via: ExactAudioCopyFreeDBPlugin 1.0
#
DISCID=240e6f15
DTITLE=Greenhorns - Rovnou, tady rovnou 
DYEAR=2004
DGENRE=Country
TTITLE0=Oranžový expres
TTITLE1=Drnová chajda
TTITLE2=Mašlička černá jak noc
TTITLE3=Redback pod prkýnkem hajzlíku
TTITLE4=Carra carra wirra canna
TTITLE5=Velká jízda na říčním kolotoč
TTITLE6=Na vánoce ráno
TTITLE7=Plav odsuť, ty grázle
TTITLE8=Dan, zvaný Svatý
TTITLE9=Pod souhvězdím Jižní křiž
TTITLE10=Tam za mořem piva
TTITLE11=Erie Canal
TTITLE12=Za střízliva je to fajn kluk
TTITLE13=Do černejch hor
TTITLE14=Country Radio
TTITLE15=Střihačský nůžky
TTITLE16=Muži z Eureky
TTITLE17=El Paso
TTITLE18=Nancy Whisky
TTITLE19=Nejhežčí místo co znám
TTITLE20=Jestřáb čas
EXTD=
EXTT0=
EXTT1=
EXTT2=
EXTT3=
EXTT4=
EXTT5=
EXTT6=
EXTT7=
EXTT8=
EXTT9=
EXTT10=
EXTT11=
EXTT12=
EXTT13=
EXTT14=
EXTT15=
EXTT16=
EXTT17=
EXTT18=
EXTT19=
EXTT20=
PLAYORDER=
